<?xml version="1.0" encoding="UTF-8"?>
<svg version="1.1" xmlns="http://www.w3.org/2000/svg" width="606" height="468">
<path d="M0 0 C17.82450097 14.33386953 31.72363547 34.65825097 34.78466797 57.75830078 C37.30860275 84.03354924 32.73285843 108.7696891 15.64697266 129.65380859 C-0.2111414 148.39423839 -22.33943558 160.79524755 -47 163 C-72.48006806 164.6200835 -95.96226614 157.43805064 -115.3125 140.5625 C-116.89390284 139.06133201 -118.45688318 137.54049692 -120 136 C-121.15435547 134.86304688 -121.15435547 134.86304688 -122.33203125 133.703125 C-136.48986724 118.94231474 -144.81011121 98.33628115 -146 78 C-146.05285156 77.23171875 -146.10570312 76.4634375 -146.16015625 75.671875 C-146.82184049 56.91456538 -141.75417218 37.43700158 -131 22 C-130.50113281 21.27941406 -130.00226563 20.55882812 -129.48828125 19.81640625 C-114.49690154 -0.54718702 -93.54788768 -13.66545668 -68.46972656 -17.69091797 C-43.83327181 -20.7741279 -19.90966316 -14.7126555 0 0 Z " fill="#000000" transform="translate(358,162)"/>
<path d="M0 0 C2.625 2.375 2.625 2.375 5 5 C6.010625 5.825 7.02125 6.65 8.0625 7.5 C10.80332511 9.83261712 12.93493088 12.0612478 15 15 C15 15.66 15 16.32 15 17 C15.59296875 17.2475 16.1859375 17.495 16.796875 17.75 C19.3343262 19.18968863 20.54044102 20.65151493 22.25 23 C22.77078125 23.70125 23.2915625 24.4025 23.828125 25.125 C25 27 25 27 25 29 C25.58652344 29.21785156 26.17304687 29.43570313 26.77734375 29.66015625 C29.72219762 31.43534935 30.81539451 33.49438941 32.5625 36.4375 C34.71901223 40.16663775 34.71901223 40.16663775 37.46118164 43.44482422 C39.04028374 45.04071195 40.1302329 46.60278419 41.3046875 48.51171875 C41.72363281 49.18783203 42.14257812 49.86394531 42.57421875 50.56054688 C43.21810547 51.61338867 43.21810547 51.61338867 43.875 52.6875 C44.29652344 53.37005859 44.71804688 54.05261719 45.15234375 54.75585938 C46.00829768 56.14187652 46.86203715 57.52926355 47.71362305 58.91796875 C48.5651398 60.29616858 49.42588668 61.66871188 50.29614258 63.03515625 C53.10782809 67.45221482 55.62362265 71.92877342 57.9375 76.625 C58.44410156 77.64835449 58.44410156 77.64835449 58.9609375 78.69238281 C68 97.13718676 68 97.13718676 68 103 C68.66 103 69.32 103 70 103 C72.04780272 109.08571108 74.07788515 115.17707204 76.09375 121.2734375 C76.8644982 123.59232648 77.64846135 125.90605052 78.4375 128.21875 C87.34605743 155.16713622 89.59471158 183.9097528 89.4375 212.125 C89.43479095 213.27477325 89.43208191 214.42454651 89.42929077 215.60916138 C89.32907517 243.76486776 86.96776272 271.9436764 77.76538086 298.76757812 C76.99472336 301.01539061 76.26107254 303.27253475 75.53515625 305.53515625 C75.04427083 307.04427083 74.55338542 308.55338542 74.0625 310.0625 C73.82337891 310.81337891 73.58425781 311.56425781 73.33789062 312.33789062 C71.88336195 316.77823279 70.15060713 320.86192448 67.99731445 325.00610352 C66.30286474 328.39375854 64.95794563 331.91888064 63.5625 335.4375 C61.08243762 341.56048379 58.42035502 347.33729743 55 353 C54.50113281 353.87140625 54.00226563 354.7428125 53.48828125 355.640625 C49.9908651 361.73868393 46.36448048 367.75889171 42.6875 373.75 C42.25477783 374.46615479 41.82205566 375.18230957 41.3762207 375.92016602 C40.30584093 377.64875451 39.15938696 379.32980452 38 381 C37.34 381 36.68 381 36 381 C35.60167969 382.10794922 35.60167969 382.10794922 35.1953125 383.23828125 C34.01406293 385.96750819 32.7346048 387.88245498 30.875 390.1875 C30.24464844 390.97253906 29.61429688 391.75757813 28.96484375 392.56640625 C28.31644531 393.36949219 27.66804687 394.17257812 27 395 C26.42378906 395.75152344 25.84757813 396.50304687 25.25390625 397.27734375 C21.055222 402.70403027 16.53879484 407.78637968 11.875 412.8125 C11.28904053 413.44687988 10.70308105 414.08125977 10.09936523 414.73486328 C0.00469632 425.49966455 0.00469632 425.49966455 -7 426 C-7 426.66 -7 427.32 -7 428 C-15.85675894 428.62469303 -22.60895892 428.23186054 -30 423 C-34.96831578 418.24769795 -38.63629287 412.13933352 -39.24609375 405.19921875 C-39.24950862 402.78490221 -39.18089907 400.40696257 -39 398 C-38.34 398 -37.68 398 -37 398 C-37.020625 397.05125 -37.04125 396.1025 -37.0625 395.125 C-36.17602875 389.06542253 -31.0903073 385.18626758 -27 381 C-25.15582012 379.07127319 -23.32004969 377.13862652 -21.5 375.1875 C-21.04069092 374.69644775 -20.58138184 374.20539551 -20.1081543 373.69946289 C-15.77788101 368.96172424 -12.26663039 363.79777413 -8.77734375 358.421875 C-8.19082031 357.62265625 -7.60429687 356.8234375 -7 356 C-6.34 356 -5.68 356 -5 356 C-4.72027344 355.43410156 -4.44054687 354.86820312 -4.15234375 354.28515625 C-2.99074163 351.98164019 -1.7938222 349.70451378 -0.5625 347.4375 C-0.15128906 346.67308594 0.25992188 345.90867187 0.68359375 345.12109375 C2 343 2 343 3.4296875 341.671875 C5.84657747 339.09866877 7.17094847 335.96399557 8.6875 332.8125 C9.39283405 331.36959845 10.09857522 329.92689586 10.8046875 328.484375 C11.16530273 327.74380859 11.52591797 327.00324219 11.89746094 326.24023438 C12.97554143 324.04969704 14.07960924 321.8747083 15.1953125 319.703125 C18.66211278 312.93776971 21.90293325 306.33973361 24 299 C24.66 299 25.32 299 26 299 C26.11029541 298.41009277 26.22059082 297.82018555 26.33422852 297.21240234 C27.60773102 290.6056648 29.20522424 284.1248282 30.9375 277.625 C31.47282331 275.58598135 32.0079815 273.54691935 32.54296875 271.5078125 C33.34721902 268.45770232 34.16024369 265.41096195 34.98828125 262.3671875 C37.03647389 254.65758033 38.14043845 246.92614933 39 239 C39.1134375 237.95972656 39.226875 236.91945312 39.34375 235.84765625 C41.66315985 209.78650945 41.20947427 181.41299465 33.64941406 156.22558594 C32.85060865 153.48802572 32.12585431 150.73394016 31.3984375 147.9765625 C28.35165526 136.5500632 25.11620855 125.68627431 20 115 C19.54109375 113.96746094 19.0821875 112.93492187 18.609375 111.87109375 C13.23051109 99.82775834 7.40776559 87.68772384 -0.4921875 77.078125 C-5 70.86528497 -5 70.86528497 -5 68 C-5.99 67.67 -6.98 67.34 -8 67 C-9.90234375 64.63671875 -9.90234375 64.63671875 -11.9375 61.6875 C-13.92295057 58.82217731 -15.77411866 56.22353249 -18.25390625 53.76953125 C-20 52 -20 52 -20 50 C-20.66 50 -21.32 50 -22 50 C-24.54854905 47.5321438 -26.73860419 44.7300553 -29 42 C-29.63035156 41.2678125 -30.26070313 40.535625 -30.91015625 39.78125 C-35.76899921 33.92175361 -38.31663893 28.58828146 -39.4375 21.0625 C-38.34723519 13.43064632 -35.07481896 5.9251758 -29 1 C-20.17980371 -4.22391239 -9.07493498 -5.22433184 0 0 Z " fill="#000000" transform="translate(517,16)"/>
<path d="M0 0 C6.32991374 4.1719886 9.47782929 9.64284156 11 17 C11.61309777 24.47979285 10.50266517 32.32697397 5.625 38.3125 C3.10258322 40.89497432 0.55259515 43.44740485 -2 46 C-3.57679 47.86560797 -5.13266229 49.74464014 -6.66796875 51.64453125 C-7.10753906 52.09183594 -7.54710938 52.53914063 -8 53 C-8.66 53 -9.32 53 -10 53 C-10.37125 53.81210938 -10.37125 53.81210938 -10.75 54.640625 C-12.27988604 57.5282849 -14.09150997 60.09776018 -16 62.75 C-16.70125 63.73484375 -17.4025 64.7196875 -18.125 65.734375 C-18.74375 66.48203125 -19.3625 67.2296875 -20 68 C-20.66 68 -21.32 68 -22 68 C-22.25136719 68.69609375 -22.50273438 69.3921875 -22.76171875 70.109375 C-24.1652258 73.3857006 -25.90924521 76.23681652 -27.8125 79.25 C-30.51959372 83.58570745 -33.18723637 87.92091358 -35.60546875 92.42578125 C-36.69802024 94.44256397 -37.83494578 96.43531937 -38.98828125 98.41796875 C-45.65621744 110.13199004 -49.89245607 122.43716041 -54.0637207 135.22143555 C-54.84340832 137.53528815 -55.68919929 139.78977932 -56.59765625 142.0546875 C-58.51569786 147.07716807 -59.50304802 152.30474084 -60.5625 157.5625 C-60.77938477 158.6244458 -60.99626953 159.6863916 -61.21972656 160.78051758 C-69.68413334 203.02227445 -69.64785095 252.91843459 -53.03955078 293.41601562 C-52.04739442 295.88219293 -51.13387983 298.3618037 -50.24609375 300.8671875 C-44.37419243 317.25037678 -36.59455107 332.29300809 -26.65625 346.58984375 C-22 353.36556604 -22 353.36556604 -22 356 C-21.34 356 -20.68 356 -20 356 C-18.36296231 358.15777729 -16.82755632 360.32151446 -15.3125 362.5625 C-12.0125628 367.32622489 -8.7188562 371.63420909 -4.47265625 375.609375 C-2.39902665 377.56749738 -0.65549054 379.68231324 1 382 C1 382.66 1 383.32 1 384 C1.86625 384.3403125 1.86625 384.3403125 2.75 384.6875 C6.70378226 386.99387299 8.56851536 389.9212884 10.25 394.125 C11.97975271 403.06205569 11.6709216 410.99270582 7 419 C4.25 421.875 4.25 421.875 1 424 C0.43667969 424.39058594 -0.12664062 424.78117187 -0.70703125 425.18359375 C-6.80777015 428.89541173 -13.05805109 428.38096061 -20 428 C-20 427.34 -20 426.68 -20 426 C-20.88945313 425.9175 -21.77890625 425.835 -22.6953125 425.75 C-31.50664543 423.75026487 -38.32400019 413.63382477 -44 407 C-45.22910197 405.62494217 -46.4582664 404.24994017 -47.6875 402.875 C-56 393.34231651 -56 393.34231651 -56 390 C-56.99 389.67 -57.98 389.34 -59 389 C-60.25512695 387.46875 -60.25512695 387.46875 -61.48828125 385.5 C-62.17241089 384.42322998 -62.17241089 384.42322998 -62.87036133 383.32470703 C-63.58421997 382.17397705 -63.58421997 382.17397705 -64.3125 381 C-65.30154944 379.43455839 -66.29112754 377.86945066 -67.28125 376.3046875 C-67.98894531 375.17885254 -67.98894531 375.17885254 -68.7109375 374.03027344 C-70.19487256 371.69307572 -71.74237474 369.40502232 -73.3125 367.125 C-80.01041862 357.07812207 -84.92887643 346.03610795 -90.00732422 335.11621094 C-90.80038692 333.42554012 -91.61700473 331.74592534 -92.44140625 330.0703125 C-96.58148617 321.51688006 -99.32852623 312.42426535 -102.22607422 303.39404297 C-102.85260499 301.45594811 -103.50278309 299.52550817 -104.16015625 297.59765625 C-106.42865497 290.75542326 -108.03598809 283.78777768 -109.5625 276.75 C-109.76053223 275.86530029 -109.95856445 274.98060059 -110.16259766 274.0690918 C-114.17194916 254.84837328 -115.50283397 235.44021652 -115.39111328 215.84326172 C-115.37500271 212.50056192 -115.39109999 209.1590705 -115.41015625 205.81640625 C-115.43005144 186.13159941 -113.59311334 166.6949006 -109.4375 147.4375 C-109.22931641 146.42494141 -109.02113281 145.41238281 -108.80664062 144.36914062 C-107.66528537 138.87703932 -106.40143218 133.43135695 -105 128 C-104.34 128 -103.68 128 -103 128 C-102.92007813 126.93007812 -102.84015625 125.86015625 -102.7578125 124.7578125 C-102.01274149 118.85176183 -99.92021104 113.43723687 -97.875 107.875 C-97.47192627 106.76640625 -97.06885254 105.6578125 -96.65356445 104.515625 C-93.62368519 96.33537005 -90.09488235 88.70177354 -86 81 C-84.61264111 78.02005162 -83.30123335 75.01886136 -82 72 C-81.34 72 -80.68 72 -80 72 C-79.92007813 71.32324219 -79.84015625 70.64648438 -79.7578125 69.94921875 C-78.78230526 66.15278594 -76.92050505 63.10985078 -74.875 59.8125 C-74.47120117 59.15048584 -74.06740234 58.48847168 -73.65136719 57.80639648 C-70.78969117 53.15871391 -67.76171617 48.65645489 -64.56640625 44.23046875 C-62.56347374 41.37841273 -60.7887147 38.41327522 -59.04296875 35.3984375 C-58.69878906 34.93695313 -58.35460938 34.47546875 -58 34 C-57.34 34 -56.68 34 -56 34 C-55.72671875 33.41863281 -55.4534375 32.83726563 -55.171875 32.23828125 C-49.94308663 22.25129546 -40.73653484 14.06904728 -33 6 C-32.11828125 5.07316406 -31.2365625 4.14632813 -30.328125 3.19140625 C-21.99488876 -4.65246209 -9.92533623 -5.27991631 0 0 Z " fill="#000000" transform="translate(115,20)"/>
<path d="M0 0 C2.75810097 1.71962571 4.7911424 3.76755975 6.9296875 6.203125 C7.6928125 6.945625 8.4559375 7.688125 9.2421875 8.453125 C11.62647993 10.8928661 13.94812943 13.36635336 16.2421875 15.890625 C16.93957031 16.65761719 17.63695312 17.42460938 18.35546875 18.21484375 C19.9296875 20.203125 19.9296875 20.203125 19.9296875 22.203125 C20.5896875 22.203125 21.2496875 22.203125 21.9296875 22.203125 C23.0871582 23.54492188 23.0871582 23.54492188 24.35546875 25.421875 C24.82275391 26.10765625 25.29003906 26.7934375 25.77148438 27.5 C26.25681641 28.22703125 26.74214844 28.9540625 27.2421875 29.703125 C27.71591797 30.39921875 28.18964844 31.0953125 28.67773438 31.8125 C34.01538296 39.69849244 38.82597973 47.60488015 42.9296875 56.203125 C43.4040625 57.193125 43.8784375 58.183125 44.3671875 59.203125 C45.92797373 62.51979574 47.43885968 65.85443814 48.9296875 69.203125 C49.43757813 70.33363281 49.94546875 71.46414062 50.46875 72.62890625 C57.64497516 89.4654345 60.55778007 107.195599 62.62011719 125.28979492 C62.84474566 127.28208713 62.84474566 127.28208713 63.9296875 129.203125 C64.0284887 131.81762854 64.06953691 134.40490086 64.0625 137.01953125 C64.06345673 137.79119125 64.06441345 138.56285126 64.06539917 139.3578949 C64.06607996 140.98949261 64.0642327 142.62109303 64.06005859 144.25268555 C64.05470163 146.75901321 64.06001069 149.26516225 64.06640625 151.77148438 C64.06574559 153.35416706 64.06446469 154.93684964 64.0625 156.51953125 C64.06452423 157.27367813 64.06654846 158.02782501 64.06863403 158.80482483 C64.04464374 164.08816876 64.04464374 164.08816876 62.9296875 165.203125 C62.69170591 166.58672146 62.5094981 167.97999794 62.3515625 169.375 C58.27084802 203.35401859 47.72211287 235.5703717 26.9296875 263.203125 C25.99102278 264.57733015 25.05342401 265.95226438 24.1171875 267.328125 C23.3953125 268.276875 22.6734375 269.225625 21.9296875 270.203125 C21.2696875 270.203125 20.6096875 270.203125 19.9296875 270.203125 C19.65769531 270.78191406 19.38570313 271.36070312 19.10546875 271.95703125 C16.05737569 277.77980038 11.67226458 282.703757 6.9296875 287.203125 C6.1665625 288.069375 5.4034375 288.935625 4.6171875 289.828125 C-1.34458234 295.09666579 -7.48066165 295.71107458 -15.171875 295.48828125 C-22.21654231 294.79520751 -26.98674272 292.1711591 -32.0703125 287.203125 C-37.60447223 279.72453076 -37.68405318 273.30694502 -37.0703125 264.203125 C-36.34072376 261.51382696 -35.45986517 259.63484217 -34.0703125 257.203125 C-33.4103125 257.203125 -32.7503125 257.203125 -32.0703125 257.203125 C-31.668125 256.32914062 -31.668125 256.32914062 -31.2578125 255.4375 C-30.05550259 253.17525899 -28.73205337 251.39736182 -27.0703125 249.453125 C-26.5546875 248.83953125 -26.0390625 248.2259375 -25.5078125 247.59375 C-24.0703125 246.203125 -24.0703125 246.203125 -22.0703125 246.203125 C-21.8125 245.65140625 -21.5546875 245.0996875 -21.2890625 244.53125 C-19.89068125 241.85998325 -18.28267945 239.43460591 -16.5703125 236.953125 C-15.961875 236.06109375 -15.3534375 235.1690625 -14.7265625 234.25 C-13.90671875 233.23679687 -13.90671875 233.23679687 -13.0703125 232.203125 C-12.4103125 232.203125 -11.7503125 232.203125 -11.0703125 232.203125 C-10.7609375 231.0275 -10.7609375 231.0275 -10.4453125 229.828125 C-8.93945052 225.85812523 -6.96042023 222.54188228 -4.703125 218.9609375 C-0.67712393 212.16104096 2.08034597 205.28298275 4.4921875 197.765625 C4.78287109 196.87552734 5.07355469 195.98542969 5.37304688 195.06835938 C5.9500689 193.30114875 6.52401876 191.53293173 7.09472656 189.76367188 C7.89843242 187.29897392 8.73451923 184.84714933 9.57421875 182.39453125 C17.70939384 157.95667007 16.00286368 124.15577722 6.69946289 100.20532227 C5.98150002 98.33789015 5.32605291 96.4467552 4.67578125 94.5546875 C-0.68237082 79.29594995 -8.30418857 65.85369028 -18.31103516 53.15234375 C-22.0703125 48.37881511 -22.0703125 48.37881511 -22.0703125 46.203125 C-22.66328125 45.9453125 -23.25625 45.6875 -23.8671875 45.421875 C-26.24692215 44.10542605 -27.58010042 42.77731718 -29.3203125 40.703125 C-30.10148437 39.79046875 -30.10148437 39.79046875 -30.8984375 38.859375 C-32.0703125 37.203125 -32.0703125 37.203125 -32.0703125 35.203125 C-33.0603125 34.873125 -34.0503125 34.543125 -35.0703125 34.203125 C-38.03957699 27.44035203 -38.62481137 18.32019011 -35.9453125 11.328125 C-31.92573256 4.6288251 -28.33911796 0.48470392 -20.78125 -2.13671875 C-13.3593632 -3.94406582 -6.83163058 -3.45228307 0 0 Z " fill="#000000" transform="translate(449.0703125,81.796875)"/>
<path d="M0 0 C5.56586117 4.83540619 8.59708273 9.73535615 9.30078125 17.18359375 C9.30464844 18.25738281 9.30851562 19.33117187 9.3125 20.4375 C9.32925781 21.50871094 9.34601563 22.57992187 9.36328125 23.68359375 C8.61930941 30.47533666 5.71029181 34.73493735 1 39.5 C-3.39777148 44.08302696 -7.32148525 48.86674682 -11.0625 54 C-11.75956055 54.95229492 -11.75956055 54.95229492 -12.47070312 55.92382812 C-14.57327466 58.8449342 -16.54038727 61.70144016 -18 65 C-18.66 65 -19.32 65 -20 65 C-20.268125 65.86496094 -20.53625 66.72992188 -20.8125 67.62109375 C-21.98022835 70.94374186 -23.3860761 73.93552245 -25 77.0625 C-26.85166584 80.65936089 -28.55705772 84.21921373 -30 88 C-30.66 88 -31.32 88 -32 88 C-32.11472656 88.97710937 -32.22945312 89.95421875 -32.34765625 90.9609375 C-32.96924049 95.3109348 -34.1910247 99.41972884 -35.4375 103.625 C-37.55959928 111.03721127 -39.14149114 118.32333357 -40 126 C-40.11085937 126.98097656 -40.22171875 127.96195313 -40.3359375 128.97265625 C-42.39791716 150.12188005 -39.61451531 169.99704776 -34.6015625 190.50097656 C-33.68161024 194.32266134 -32.84115658 198.16027598 -32 202 C-31.34 202 -30.68 202 -30 202 C-29.36384766 203.52367187 -29.36384766 203.52367187 -28.71484375 205.078125 C-23.79416393 216.69812898 -18.41924199 227.49690961 -10.28515625 237.2578125 C-9 239 -9 239 -9 241 C-8.34 241 -7.68 241 -7 241 C-0.1520091 247.63116797 8.33147345 256.4935265 9.3359375 266.26953125 C9.43013519 274.81326154 9.05728732 280.57306828 3.19921875 286.96484375 C-3.28146392 293.11834632 -9.49937507 294.44282922 -18.28515625 294.25 C-25.22520884 293.61091602 -29.3734866 291.20482757 -34 286 C-35.20771032 284.85351002 -36.41611908 283.70775561 -37.625 282.5625 C-41.34442161 278.85017653 -44.62672522 274.8714153 -47.875 270.75 C-48.35146973 270.14744385 -48.82793945 269.5448877 -49.31884766 268.92407227 C-51.09799775 266.63326491 -52.78489828 264.43648378 -54.0703125 261.828125 C-54.94196924 259.8617078 -54.94196924 259.8617078 -56.82421875 258.26953125 C-59.85662674 255.10646295 -61.73194109 251.52227143 -63.8125 247.6875 C-64.25045898 246.88715332 -64.68841797 246.08680664 -65.13964844 245.26220703 C-69.08304136 237.98065256 -72.750948 230.61735612 -76 223 C-76.26264648 222.38511719 -76.52529297 221.77023437 -76.79589844 221.13671875 C-81.5576226 209.76508576 -84.5833819 198.07208586 -87 186 C-87.16661133 185.18450684 -87.33322266 184.36901367 -87.50488281 183.52880859 C-94.69673667 146.57935652 -91.93156033 102.2647097 -76 68 C-75.36697368 66.5656133 -74.73798366 65.12943769 -74.11328125 63.69140625 C-73.81486328 63.00755859 -73.51644531 62.32371094 -73.20898438 61.61914062 C-72.59944103 60.22077649 -71.99007247 58.82233617 -71.38085938 57.42382812 C-69.10579182 52.21158365 -69.10579182 52.21158365 -68 50 C-67.34 50 -66.68 50 -66 50 C-65.814375 49.071875 -65.62875 48.14375 -65.4375 47.1875 C-62.96478949 38.52424475 -56.42912167 31.03775031 -51 24 C-49.46239799 21.92236217 -47.92706684 19.84309628 -46.39453125 17.76171875 C-45.02794894 16.03530805 -43.56544306 14.54537328 -42 13 C-40.93123012 11.7553566 -39.86915999 10.5049406 -38.8125 9.25 C-28.20537634 -2.85328636 -15.1410159 -9.07953717 0 0 Z " fill="#000000" transform="translate(183,87)"/>
</svg>
